<svg xmlns:xlink="http://www.w3.org/1999/xlink" style="text-rendering: geometricprecision; cursor: auto;" xmlns="http://www.w3.org/2000/svg">
	<defs>
		<linearGradient x1="0" y1="0.5" x2="1" y2="0.5" id="linearGradientSjvu40yzkkht">
			<stop offset="0%" stop-color="#ffc04a"/>
			<stop offset="100%" stop-color="#ff6347"/>
		</linearGradient>
		<linearGradient x1="0" y1="0.5" x2="1" y2="0.5" id="linearGradientSjvu40yzkki3">
			<stop offset="0%" stop-color="#ffc04a"/>
			<stop offset="100%" stop-color="#ff6347"/>
		</linearGradient>
		<linearGradient x1="0" y1="0.5" x2="1" y2="0.5" id="linearGradientSjvu40yzkki9">
			<stop offset="0%" stop-color="#ffc04a"/>
			<stop offset="100%" stop-color="#ff6347"/>
		</linearGradient>
		<linearGradient x1="0" y1="0.5" x2="1" y2="0.5" id="linearGradientSjvu40yzkkif">
			<stop offset="0%" stop-color="#ffc04a"/>
			<stop offset="100%" stop-color="#ff6347"/>
		</linearGradient>
		<linearGradient x1="0" y1="0.5" x2="1" y2="0.5" id="linearGradientSjvu40yzkkii">
			<stop offset="0%" stop-color="#ffc04a"/>
			<stop offset="100%" stop-color="#ff6347"/>
		</linearGradient>
		<linearGradient x1="0" y1="0.5" x2="1" y2="0.5" id="linearGradientSjvu40yzkkip">
			<stop offset="0%" stop-color="#ffc04a"/>
			<stop offset="100%" stop-color="#ff6347"/>
		</linearGradient>
		<linearGradient x1="0" y1="0.5" x2="1" y2="0.5" id="linearGradientSjvu40yzkkis">
			<stop offset="0%" stop-color="#ffc04a"/>
			<stop offset="100%" stop-color="#ff6347"/>
		</linearGradient>
		<linearGradient x1="0" y1="0.5" x2="1" y2="0.5" id="linearGradientSjvu40yzkkiv">
			<stop offset="0%" stop-color="#ffc04a"/>
			<stop offset="100%" stop-color="#ff6347"/>
		</linearGradient>
		<linearGradient x1="0" y1="0.5" x2="1" y2="0.5" id="linearGradientSjvu40yzkkj2">
			<stop offset="0%" stop-color="#ffc04a"/>
			<stop offset="100%" stop-color="#ff6347"/>
		</linearGradient>
		<linearGradient x1="0" y1="0.5" x2="1" y2="0.5" id="linearGradientSjvu40yzkkj5">
			<stop offset="0%" stop-color="#cf1717"/>
			<stop offset="100%" stop-color="#ff6347"/>
		</linearGradient>
		<linearGradient x1="0" y1="0.5" x2="1" y2="0.5" id="linearGradientSjvu40yzkkjc">
			<stop offset="0%" stop-color="#cf1717"/>
			<stop offset="100%" stop-color="#bbff9c"/>
		</linearGradient>
		<linearGradient x1="0" y1="0.5" x2="1" y2="0.5" id="linearGradientSjvu40yzkkjj">
			<stop offset="0%" stop-color="#cf1717"/>
			<stop offset="100%" stop-color="#000000"/>
		</linearGradient>
		<linearGradient x1="0" y1="0.5" x2="1" y2="0.5" id="linearGradientSjvu40yzkkjq">
			<stop offset="0.95%" stop-color="#cf1717"/>
			<stop offset="100%" stop-color="#000000"/>
		</linearGradient>
		<linearGradient x1="0" y1="0.5" x2="1" y2="0.5" id="linearGradientSjvu40yzkkjx">
			<stop offset="9.95%" stop-color="#cf1717"/>
			<stop offset="100%" stop-color="#000000"/>
		</linearGradient>
		<linearGradient x1="0" y1="0.5" x2="1" y2="0.5" id="linearGradientSjvu40yzkkk4">
			<stop offset="20.85%" stop-color="#cf1717"/>
			<stop offset="100%" stop-color="#000000"/>
		</linearGradient>
		<linearGradient x1="0" y1="0.5" x2="1" y2="0.5" id="linearGradientSjvu40yzkkkb">
			<stop offset="25.12%" stop-color="#cf1717"/>
			<stop offset="100%" stop-color="#000000"/>
		</linearGradient>
		<linearGradient x1="0" y1="0.5" x2="1" y2="0.5" id="linearGradientSjvu40yzkkki">
			<stop offset="27.49%" stop-color="#cf1717"/>
			<stop offset="100%" stop-color="#000000"/>
		</linearGradient>
		<linearGradient x1="0" y1="0.5" x2="1" y2="0.5" id="linearGradientSjvu40yzkkkp">
			<stop offset="28.44%" stop-color="#cf1717"/>
			<stop offset="100%" stop-color="#000000"/>
		</linearGradient>
		<linearGradient x1="0" y1="0.5" x2="1" y2="0.5" id="linearGradientSjvu40yzkkkw">
			<stop offset="29.86%" stop-color="#cf1717"/>
			<stop offset="100%" stop-color="#000000"/>
		</linearGradient>
		<linearGradient x1="0" y1="0.5" x2="1" y2="0.5" id="linearGradientSjvu40yzkkl3">
			<stop offset="30.33%" stop-color="#cf1717"/>
			<stop offset="100%" stop-color="#000000"/>
		</linearGradient>
		<linearGradient x1="0" y1="0.5" x2="1" y2="0.5" id="linearGradientSjvu40yzkkla">
			<stop offset="30.81%" stop-color="#cf1717"/>
			<stop offset="100%" stop-color="#000000"/>
		</linearGradient>
		<linearGradient x1="0" y1="0.5" x2="1" y2="0.5" id="linearGradientSjvu40yzkklh">
			<stop offset="30.81%" stop-color="#cf1717"/>
			<stop offset="100%" stop-color="#000000"/>
		</linearGradient>
		<linearGradient x1="0" y1="0.5" x2="1" y2="0.5" id="linearGradientSjvu40yzkklo">
			<stop offset="31.28%" stop-color="#cf1717"/>
			<stop offset="100%" stop-color="#000000"/>
		</linearGradient>
		<linearGradient x1="0" y1="0.5" x2="1" y2="0.5" id="linearGradientSjvu40yzkklv">
			<stop offset="31.75%" stop-color="#cf1717"/>
			<stop offset="100%" stop-color="#000000"/>
		</linearGradient>
		<linearGradient x1="0" y1="0.5" x2="1" y2="0.5" id="linearGradientSjvu40yzkkm2">
			<stop offset="32.7%" stop-color="#cf1717"/>
			<stop offset="100%" stop-color="#000000"/>
		</linearGradient>
		<linearGradient x1="0" y1="0.5" x2="1" y2="0.5" id="linearGradientSjvu40yzkkm9">
			<stop offset="34.12%" stop-color="#cf1717"/>
			<stop offset="100%" stop-color="#000000"/>
		</linearGradient>
		<linearGradient x1="0" y1="0.5" x2="1" y2="0.5" id="linearGradientSjvu40yzkkmg">
			<stop offset="35.55%" stop-color="#cf1717"/>
			<stop offset="100%" stop-color="#000000"/>
		</linearGradient>
		<linearGradient x1="0" y1="0.5" x2="1" y2="0.5" id="linearGradientSjvu40yzkkmn">
			<stop offset="36.49%" stop-color="#cf1717"/>
			<stop offset="100%" stop-color="#000000"/>
		</linearGradient>
		<linearGradient x1="0" y1="0.5" x2="1" y2="0.5" id="linearGradientSjvu40yzkkmu">
			<stop offset="37.44%" stop-color="#cf1717"/>
			<stop offset="100%" stop-color="#000000"/>
		</linearGradient>
		<linearGradient x1="0" y1="0.5" x2="1" y2="0.5" id="linearGradientSjvu40yzkkn1">
			<stop offset="37.91%" stop-color="#cf1717"/>
			<stop offset="100%" stop-color="#000000"/>
		</linearGradient>
		<linearGradient x1="0" y1="0.5" x2="1" y2="0.5" id="linearGradientSjvu40yzkkn8">
			<stop offset="37.91%" stop-color="#cf1717"/>
			<stop offset="100%" stop-color="#000000"/>
		</linearGradient>
		<linearGradient x1="0" y1="0.5" x2="1" y2="0.5" id="linearGradientSjvu40yzkknf">
			<stop offset="38.39%" stop-color="#cf1717"/>
			<stop offset="100%" stop-color="#000000"/>
		</linearGradient>
		<linearGradient x1="0" y1="0.5" x2="1" y2="0.5" id="linearGradientSjvu40yzkknm">
			<stop offset="41.23%" stop-color="#cf1717"/>
			<stop offset="100%" stop-color="#000000"/>
		</linearGradient>
		<linearGradient x1="0" y1="0.5" x2="1" y2="0.5" id="linearGradientSjvu40yzkknt">
			<stop offset="43.13%" stop-color="#cf1717"/>
			<stop offset="100%" stop-color="#000000"/>
		</linearGradient>
		<linearGradient x1="0" y1="0.5" x2="1" y2="0.5" id="linearGradientSjvu40yzkko0">
			<stop offset="48.34%" stop-color="#cf1717"/>
			<stop offset="100%" stop-color="#000000"/>
		</linearGradient>
		<linearGradient x1="0" y1="0.5" x2="1" y2="0.5" id="linearGradientSjvu40yzkko7">
			<stop offset="50.24%" stop-color="#cf1717"/>
			<stop offset="100%" stop-color="#000000"/>
		</linearGradient>
		<linearGradient x1="0" y1="0.5" x2="1" y2="0.5" id="linearGradientSjvu40yzkkoe">
			<stop offset="53.55%" stop-color="#cf1717"/>
			<stop offset="100%" stop-color="#000000"/>
		</linearGradient>
		<linearGradient x1="0" y1="0.5" x2="1" y2="0.5" id="linearGradientSjvu40yzkkol">
			<stop offset="55.92%" stop-color="#cf1717"/>
			<stop offset="100%" stop-color="#000000"/>
		</linearGradient>
		<linearGradient x1="0" y1="0.5" x2="1" y2="0.5" id="linearGradientSjvu40yzkkos">
			<stop offset="56.87%" stop-color="#cf1717"/>
			<stop offset="100%" stop-color="#000000"/>
		</linearGradient>
		<linearGradient x1="0" y1="0.5" x2="1" y2="0.5" id="linearGradientSjvu40yzkkoz">
			<stop offset="57.82%" stop-color="#cf1717"/>
			<stop offset="100%" stop-color="#000000"/>
		</linearGradient>
		<linearGradient x1="0" y1="0.5" x2="1" y2="0.5" id="linearGradientSjvu40yzkkp6">
			<stop offset="57.82%" stop-color="#cf1717"/>
			<stop offset="100%" stop-color="#000000"/>
		</linearGradient>
		<linearGradient x1="0" y1="0.5" x2="1" y2="0.5" id="linearGradientSjvu40yzkkpd">
			<stop offset="57.82%" stop-color="#cf1717"/>
			<stop offset="100%" stop-color="#000000"/>
		</linearGradient>
		<linearGradient x1="0" y1="0.5" x2="1" y2="0.5" id="linearGradientSjvu40yzkkpk">
			<stop offset="57.35%" stop-color="#cf1717"/>
			<stop offset="100%" stop-color="#000000"/>
		</linearGradient>
		<linearGradient x1="0" y1="0.5" x2="1" y2="0.5" id="linearGradientSjvu40yzkkpr">
			<stop offset="57.35%" stop-color="#cf1717"/>
			<stop offset="100%" stop-color="#000000"/>
		</linearGradient>
		<linearGradient x1="0" y1="0.5" x2="1" y2="0.5" id="linearGradientSjvu40yzkkpy">
			<stop offset="57.35%" stop-color="#cf1717"/>
			<stop offset="100%" stop-color="#000000"/>
		</linearGradient>
		<linearGradient x1="0" y1="0.5" x2="1" y2="0.5" id="linearGradientSjvu40yzkkq5">
			<stop offset="56.87%" stop-color="#cf1717"/>
			<stop offset="100%" stop-color="#000000"/>
		</linearGradient>
		<linearGradient x1="0" y1="0.5" x2="1" y2="0.5" id="linearGradientSjvu40yzkkqc">
			<stop offset="56.87%" stop-color="#cf1717"/>
			<stop offset="100%" stop-color="#000000"/>
		</linearGradient>
		<linearGradient x1="0" y1="0.5" x2="1" y2="0.5" id="linearGradientSjvu40yzkkqj">
			<stop offset="56.87%" stop-color="#cf1717"/>
			<stop offset="100%" stop-color="#000000"/>
		</linearGradient>
		<linearGradient x1="0" y1="0.5" x2="1" y2="0.5" id="linearGradientSjvu40yzkkqq">
			<stop offset="56.4%" stop-color="#cf1717"/>
			<stop offset="100%" stop-color="#000000"/>
		</linearGradient>
		<linearGradient x1="0" y1="0.5" x2="1" y2="0.5" id="linearGradientSjvu40yzkkqx">
			<stop offset="56.4%" stop-color="#cf1717"/>
			<stop offset="100%" stop-color="#000000"/>
		</linearGradient>
		<linearGradient x1="0" y1="0.5" x2="1" y2="0.5" id="linearGradientSjvu40yzkkr4">
			<stop offset="56.4%" stop-color="#cf1717"/>
			<stop offset="100%" stop-color="#000000"/>
		</linearGradient>
		<linearGradient x1="0" y1="0.5" x2="1" y2="0.5" id="linearGradientSjvu40yzkkrb">
			<stop offset="56.4%" stop-color="#cf1717"/>
			<stop offset="100%" stop-color="#000000"/>
		</linearGradient>
		<linearGradient x1="0" y1="0.5" x2="1" y2="0.5" id="linearGradientSjvu40yzkkri">
			<stop offset="55.92%" stop-color="#cf1717"/>
			<stop offset="100%" stop-color="#000000"/>
		</linearGradient>
		<linearGradient x1="0" y1="0.5" x2="1" y2="0.5" id="linearGradientSjvu40yzkkrp">
			<stop offset="55.92%" stop-color="#cf1717"/>
			<stop offset="100%" stop-color="#000000"/>
		</linearGradient>
		<linearGradient x1="0" y1="0.5" x2="1" y2="0.5" id="linearGradientSjvu40yzkkrw">
			<stop offset="55.92%" stop-color="#cf1717"/>
			<stop offset="100%" stop-color="#000000"/>
		</linearGradient>
		<linearGradient x1="0" y1="0.5" x2="1" y2="0.5" id="linearGradientSjvu40yzkks3">
			<stop offset="55.45%" stop-color="#cf1717"/>
			<stop offset="100%" stop-color="#000000"/>
		</linearGradient>
		<linearGradient x1="0" y1="0.5" x2="1" y2="0.5" id="linearGradientSjvu40yzkksa">
			<stop offset="55.45%" stop-color="#cf1717"/>
			<stop offset="100%" stop-color="#000000"/>
		</linearGradient>
		<linearGradient x1="0" y1="0.5" x2="1" y2="0.5" id="linearGradientSjvu40yzkksh">
			<stop offset="53.08%" stop-color="#cf1717"/>
			<stop offset="100%" stop-color="#000000"/>
		</linearGradient>
		<linearGradient x1="0" y1="0.5" x2="1" y2="0.5" id="linearGradientSjvu40yzkkso">
			<stop offset="51.18%" stop-color="#cf1717"/>
			<stop offset="100%" stop-color="#000000"/>
		</linearGradient>
		<linearGradient x1="0" y1="0.5" x2="1" y2="0.5" id="linearGradientSjvu40yzkksv">
			<stop offset="49.76%" stop-color="#cf1717"/>
			<stop offset="100%" stop-color="#000000"/>
		</linearGradient>
		<linearGradient x1="0" y1="0.5" x2="1" y2="0.5" id="linearGradientSjvu40yzkkt2">
			<stop offset="48.82%" stop-color="#cf1717"/>
			<stop offset="100%" stop-color="#000000"/>
		</linearGradient>
		<linearGradient x1="0" y1="0.5" x2="1" y2="0.5" id="linearGradientSjvu40yzkkt9">
			<stop offset="48.34%" stop-color="#cf1717"/>
			<stop offset="100%" stop-color="#000000"/>
		</linearGradient>
		<linearGradient x1="0" y1="0.5" x2="1" y2="0.5" id="linearGradientSjvu40yzkktg">
			<stop offset="48.34%" stop-color="#cf1717"/>
			<stop offset="100%" stop-color="#000000"/>
		</linearGradient>
		<linearGradient x1="0" y1="0.5" x2="1" y2="0.5" id="linearGradientSjvu40yzkktn">
			<stop offset="47.87%" stop-color="#cf1717"/>
			<stop offset="100%" stop-color="#000000"/>
		</linearGradient>
		<linearGradient x1="0" y1="0.5" x2="1" y2="0.5" id="linearGradientSjvu40yzkktu">
			<stop offset="47.39%" stop-color="#cf1717"/>
			<stop offset="100%" stop-color="#000000"/>
		</linearGradient>
		<linearGradient x1="0" y1="0.5" x2="1" y2="0.5" id="linearGradientSjvu40yzkku1">
			<stop offset="46.92%" stop-color="#cf1717"/>
			<stop offset="100%" stop-color="#000000"/>
		</linearGradient>
		<linearGradient x1="0" y1="0.5" x2="1" y2="0.5" id="linearGradientSjvu40yzkku8">
			<stop offset="46.45%" stop-color="#cf1717"/>
			<stop offset="100%" stop-color="#000000"/>
		</linearGradient>
		<linearGradient x1="0" y1="0.5" x2="1" y2="0.5" id="linearGradientSjvu40yzkkuf">
			<stop offset="45.97%" stop-color="#cf1717"/>
			<stop offset="100%" stop-color="#000000"/>
		</linearGradient>
		<linearGradient x1="0" y1="0.5" x2="1" y2="0.5" id="linearGradientSjvu40yzkkum">
			<stop offset="45.97%" stop-color="#cf1717"/>
			<stop offset="100%" stop-color="#000000"/>
		</linearGradient>
		<linearGradient x1="0" y1="0.5" x2="1" y2="0.5" id="linearGradientSjvu40yzkkut">
			<stop offset="45.97%" stop-color="#cf1717"/>
			<stop offset="100%" stop-color="#000000"/>
		</linearGradient>
		<linearGradient x1="0" y1="0.5" x2="1" y2="0.5" id="linearGradientSjvu40yzkkv0">
			<stop offset="45.97%" stop-color="#cf1717"/>
			<stop offset="100%" stop-color="#a55fc1"/>
		</linearGradient>
		<linearGradient x1="0" y1="0.5" x2="1" y2="0.5" id="linearGradientSjvu40yzkkv7">
			<stop offset="45.97%" stop-color="#cf1717"/>
			<stop offset="100%" stop-color="#7e7e7e"/>
		</linearGradient>
		<linearGradient x1="0" y1="0.5" x2="1" y2="0.5" id="linearGradientSjvu40yzkkve">
			<stop offset="45.97%" stop-color="#cf1717"/>
			<stop offset="100%" stop-color="#8a25b1"/>
		</linearGradient>
		<linearGradient x1="0" y1="0.5" x2="1" y2="0.5" id="linearGradientSjvu40yzkkvl">
			<stop offset="45.97%" stop-color="#cf1717"/>
			<stop offset="100%" stop-color="#ff6347"/>
		</linearGradient>
		<linearGradient x1="0" y1="0.5" x2="1" y2="0.5" id="linearGradientSjvu40yzkkvs">
			<stop offset="45.97%" stop-color="#ff6347"/>
			<stop offset="100%" stop-color="#ff6347"/>
		</linearGradient>
		<linearGradient x1="0" y1="0.5" x2="1" y2="0.5" id="linearGradientSjvu40yzkkvz">
			<stop offset="45.97%" stop-color="#ff6347"/>
			<stop offset="100%" stop-color="#ede576"/>
		</linearGradient>
		<linearGradient x1="0" y1="0.5" x2="1" y2="0.5" id="linearGradientSjvu40yzkkw6">
			<stop offset="45.97%" stop-color="#ff6347"/>
			<stop offset="100%" stop-color="#a55fc1"/>
		</linearGradient>
		<linearGradient x1="0" y1="0.5" x2="1" y2="0.5" id="linearGradientSjvu40yzkkwd">
			<stop offset="45.02%" stop-color="#ff6347"/>
			<stop offset="100%" stop-color="#a55fc1"/>
		</linearGradient>
		<linearGradient x1="0" y1="0.5" x2="1" y2="0.5" id="linearGradientSjvu40yzkkwk">
			<stop offset="38.86%" stop-color="#ff6347"/>
			<stop offset="100%" stop-color="#a55fc1"/>
		</linearGradient>
		<linearGradient x1="0" y1="0.5" x2="1" y2="0.5" id="linearGradientSjvu40yzkkwr">
			<stop offset="32.23%" stop-color="#ff6347"/>
			<stop offset="100%" stop-color="#a55fc1"/>
		</linearGradient>
		<linearGradient x1="0" y1="0.5" x2="1" y2="0.5" id="linearGradientSjvu40yzkkwy">
			<stop offset="28.44%" stop-color="#ff6347"/>
			<stop offset="100%" stop-color="#a55fc1"/>
		</linearGradient>
		<linearGradient x1="0" y1="0.5" x2="1" y2="0.5" id="linearGradientSjvu40yzkkx5">
			<stop offset="26.54%" stop-color="#ff6347"/>
			<stop offset="100%" stop-color="#a55fc1"/>
		</linearGradient>
		<linearGradient x1="0" y1="0.5" x2="1" y2="0.5" id="linearGradientSjvu40yzkkxc">
			<stop offset="23.7%" stop-color="#ff6347"/>
			<stop offset="100%" stop-color="#a55fc1"/>
		</linearGradient>
		<linearGradient x1="0" y1="0.5" x2="1" y2="0.5" id="linearGradientSjvu40yzkkxj">
			<stop offset="23.22%" stop-color="#ff6347"/>
			<stop offset="100%" stop-color="#a55fc1"/>
		</linearGradient>
		<linearGradient x1="0" y1="0.5" x2="1" y2="0.5" id="linearGradientSjvu40yzkkxq">
			<stop offset="22.75%" stop-color="#ff6347"/>
			<stop offset="100%" stop-color="#a55fc1"/>
		</linearGradient>
		<linearGradient x1="0" y1="0.5" x2="1" y2="0.5" id="linearGradientSjvu40yzkkxx">
			<stop offset="22.27%" stop-color="#ff6347"/>
			<stop offset="100%" stop-color="#a55fc1"/>
		</linearGradient>
		<linearGradient x1="0" y1="0.5" x2="1" y2="0.5" id="linearGradientSjvu40yzkky4">
			<stop offset="20.85%" stop-color="#ff6347"/>
			<stop offset="100%" stop-color="#a55fc1"/>
		</linearGradient>
		<linearGradient x1="0" y1="0.5" x2="1" y2="0.5" id="linearGradientSjvu40yzkkyb">
			<stop offset="18.48%" stop-color="#ff6347"/>
			<stop offset="100%" stop-color="#a55fc1"/>
		</linearGradient>
		<linearGradient x1="0" y1="0.5" x2="1" y2="0.5" id="linearGradientSjvu40yzkkyi">
			<stop offset="16.59%" stop-color="#ff6347"/>
			<stop offset="100%" stop-color="#a55fc1"/>
		</linearGradient>
		<linearGradient x1="0" y1="0.5" x2="1" y2="0.5" id="linearGradientSjvu40yzkkyp">
			<stop offset="12.8%" stop-color="#ff6347"/>
			<stop offset="100%" stop-color="#a55fc1"/>
		</linearGradient>
		<linearGradient x1="0" y1="0.5" x2="1" y2="0.5" id="linearGradientSjvu40yzkkyw">
			<stop offset="10.43%" stop-color="#ff6347"/>
			<stop offset="100%" stop-color="#a55fc1"/>
		</linearGradient>
		<linearGradient x1="0" y1="0.5" x2="1" y2="0.5" id="linearGradientSjvu40yzkkz3">
			<stop offset="7.58%" stop-color="#ff6347"/>
			<stop offset="100%" stop-color="#a55fc1"/>
		</linearGradient>
		<linearGradient x1="0" y1="0.5" x2="1" y2="0.5" id="linearGradientSjvu40yzkkza">
			<stop offset="5.21%" stop-color="#ff6347"/>
			<stop offset="100%" stop-color="#a55fc1"/>
		</linearGradient>
		<linearGradient x1="0" y1="0.5" x2="1" y2="0.5" id="linearGradientSjvu40yzkkzh">
			<stop offset="3.79%" stop-color="#ff6347"/>
			<stop offset="100%" stop-color="#a55fc1"/>
		</linearGradient>
		<linearGradient x1="0" y1="0.5" x2="1" y2="0.5" id="linearGradientSjvu40yzkkzo">
			<stop offset="3.32%" stop-color="#ff6347"/>
			<stop offset="100%" stop-color="#a55fc1"/>
		</linearGradient>
		<linearGradient x1="0" y1="0.5" x2="1" y2="0.5" id="linearGradientSjvu40yzkkzv">
			<stop offset="2.84%" stop-color="#ff6347"/>
			<stop offset="100%" stop-color="#a55fc1"/>
		</linearGradient>
		<linearGradient x1="0" y1="0.5" x2="1" y2="0.5" id="linearGradientSjvu40yzkl02">
			<stop offset="2.37%" stop-color="#ff6347"/>
			<stop offset="100%" stop-color="#a55fc1"/>
		</linearGradient>
		<linearGradient x1="0" y1="0.5" x2="1" y2="0.5" id="linearGradientSjvu40yzkl09">
			<stop offset="2.37%" stop-color="#ff6347"/>
			<stop offset="100%" stop-color="#a55fc1"/>
		</linearGradient>
		<linearGradient x1="0" y1="0.5" x2="1" y2="0.5" id="linearGradientSjvu40yzkl0g">
			<stop offset="2.37%" stop-color="#ff6347"/>
			<stop offset="100%" stop-color="#a55fc1"/>
		</linearGradient>
		<linearGradient x1="0" y1="0.5" x2="1" y2="0.5" id="linearGradientSjvu40yzkl0n">
			<stop offset="2.37%" stop-color="#ff6347"/>
			<stop offset="100%" stop-color="#a55fc1"/>
		</linearGradient>
		<linearGradient x1="0" y1="0.5" x2="1" y2="0.5" id="linearGradientSjvu40yzkm0e">
			<stop offset="0%" stop-color="#3a3a3a"/>
			<stop offset="100%" stop-color="#3a3a3a"/>
		</linearGradient>
		<linearGradient x1="0" y1="0.5" x2="1" y2="0.5" id="linearGradientSjvu40yzkm0h">
			<stop offset="2.37%" stop-color="#ff6347"/>
			<stop offset="100%" stop-color="#a55fc1"/>
		</linearGradient>
		<linearGradient x1="0" y1="0.5" x2="1" y2="0.5" id="linearGradientSjvu40yzkm0o">
			<stop offset="2.37%" stop-color="#ff6347"/>
			<stop offset="100%" stop-color="#a55fc1"/>
		</linearGradient>
	</defs>
	
	
	<path fill="url('#linearGradientSjvu40yzkm0o')" d="M639.8539233 235.5624257c6.9711169 0 12.6213142-5.6538262 12.6213142-12.6249431 0-6.967488-5.6501973-12.6213142-12.6213142-12.6213142s-12.6213142 5.6538262-12.6213142 12.6213142c0 1.5313958 0.2866831 2.9938425 0.7874713 4.35468l-36.8442217 31.3863561-46.6821696-27.4598863c0.2649097-1.0777833 0.4209524-2.2027423 0.4209524-3.3639903 0-7.7731038-6.2997704-14.0728742-14.0728742-14.0728742-3.1535141 0-6.0530052 1.0487521-8.3972746 2.8015108L480.265788 183.0921606c0.1959606-0.798358 0.3120854-1.6257472 0.3120854-2.4821676 0-5.7372909-4.6486209-10.3822829-10.3822829-10.3822829s-10.3822829 4.6486209-10.3822829 10.3822829c0 2.6454681 0.9979475 5.0550577 2.6273236 6.8876522l-21.1746315 45.3177032c-0.943514-0.1633005-1.9088014-0.2685386-2.90312-0.2685386-3.120854 0-6.0312318 0.8673071-8.5315439 2.3478983l-56.0229582-25.0938435c0.1306404-0.8165025 0.217734-1.6475206 0.217734-2.5003121 0-8.636782-7.0001481-15.6369301-15.6369301-15.6369301-8.6331531 0-15.6369301 7.0001481-15.6369301 15.6369301s7.0001481 15.6369301 15.6369301 15.6369301c4.9062728 0 9.2754684-2.2608047 12.1422994-5.7917244l53.2795098 23.8636464c-1.3934976 2.4458786-2.2027423 5.2691628-2.2027423 8.2884076 0 3.0918228 1.0632677 5.8243845 2.5184566 8.310181l-29.8767337 29.8912493c-4.1224304-2.9430379-9.0940234-4.6957966-14.5264867-4.6957966-9.5875538 0-17.8360435 5.4469789-22.0709698 13.3688676l-0.3483744-0.1161248c-0.0036289 0.0435468-0.0145156 0.0834647-0.0181445 0.1270115L315.6334817 277.2548578c0.0580624-0.4862726 0.0907225-0.9834319 0.0907225-1.4842201 0-7.2178821-5.8497868-13.0676689-13.0676689-13.0676689s-13.0676689 5.8497868-13.0676689 13.0676689 5.8497868 13.0676689 13.0676689 13.0676689c3.8248606 0 7.2541711-1.6511495 9.6419873-4.2712153l42.5415947 19.3384081c-0.0181445 0.0471757-0.0326601 0.0907225-0.0544335 0.1342693l0.2032184 0.0689491c-0.1959606 1.2628572-0.3919212 2.5184566-0.3919212 3.8284895 0 7.0908706 2.9502957 13.4849924 7.6751235 18.0537775l-0.0616913 0.0471757c0.0145156 0.0181445 0.0290312 0.036289 0.0435468 0.0508046l-21.6754197 31.9415778c-0.5624795-0.0979803-1.1394746-0.1596716-1.7346142-0.1596716-5.3671431 0-9.7181942 4.3474222-9.7181942 9.7181942 0 5.3671431 4.3510511 9.7181942 9.7181942 9.7181942 5.3671431 0 9.7181942-4.3510511 9.7181942-9.7181942 0-1.8180789-0.508046-3.5164041-1.378982-4.971593l19.4654196-28.6828256 2.576519-3.1825453c3.1970609 1.4769623 6.7461251 2.3261249 10.5020366 2.3261249 6.9021678 0 13.1692781-2.7978819 17.7199187-7.3158624l25.3768977 18.1118399c-0.7221511 1.8652546-1.2120526 3.846634-1.2120526 5.9550249 0 9.2464372 7.4936785 16.7546313 16.7546313 16.7546313 7.8347951 0 14.3885885-5.3816587 16.2248119-12.6358298l57.7575724-17.8650747c3.5454353 6.5864535 10.4984077 11.068145 18.5037611 11.068145 4.6195897 0 8.8799183-1.5132513 12.3491467-4.0425946l25.837768 23.9906579c-0.1378982 0.7003777-0.2141051 1.4261577-0.2141051 2.1664533 0 6.2925126 5.1022334 11.394746 11.394746 11.394746s11.3911171-5.0986045 11.3911171-11.394746c0-6.2888837-5.0986045-11.3911171-11.3911171-11.3911171-2.5656323 0-4.9280462 0.8564204-6.8332187 2.2898359l-24.7164379-22.9455347c2.0031528-3.2188343 3.2406077-7.003777 3.2406077-11.068145 0-10.2153535-6.0276029-18.725124-16.9143029-20.6012653V241.3360056c3.6289-0.6241708 3.9264698-1.7346142 5.4905257-3.1861742l48.3804948 28.4796072 40.5674731 56.8104295c-0.3338588 0.834647-0.5298194 1.7455009-0.5298194 2.7035305 0 4.0825125 3.302299 7.3920693 7.3848115 7.3920693s7.3920693-3.3095568 7.3920693-7.3920693-3.3131857-7.3920693-7.3956982-7.3920693c-0.108867 0-0.217734 0.0108867-0.326601 0.0181445L597.0220166 264.2633958l36.0386059-30.6968651C635.0202285 234.825759 637.3499823 235.5624257 639.8539233 235.5624257zM509.841323 326.1433986c0 0.762069 0.0471757 1.5096224 0.1270115 2.249918l-55.4314475 17.1429236c-1.8942858-7.1670775-8.4045324-12.4652715-16.1776362-12.4652715-4.0752547 0-7.6714946 1.6366339-10.5709857 4.0389657l-25.5401982-18.2243358c1.6221183-3.338588 2.6019213-7.003777 2.6019213-10.9483913 0-5.4143188-1.7672743-10.4185719-4.681281-14.5119711l29.8767337-29.8912493c2.4894254 1.4551889 5.2183582 2.5184566 8.3138099 2.5184566 5.9586538 0 11.1733831-3.1099673 14.1418233-7.7912483l62.4969158 54.1214146C511.7973001 316.0732011 509.841323 320.8742358 509.841323 326.1433986zM527.7318 305.5421333c-3.6289 0.36289-4.1188015 0.9906897-5.7917244 1.8217078l-66.626604-57.5035494c0.0072578-0.1887028-0.0834647-0.3701478-0.0834647-0.5588506 0-5.3889165-2.6055502-10.1681778-6.5537934-13.2309694l21.0439911-45.0999692c0.1669294 0.0072578 0.3193432 0.0254023 0.4862726 0.0254023 1.923317 0 3.7123647-0.5334483 5.2582761-1.4479311l42.1714469 33.4911181c-0.5479639 1.5059935-0.4100657 3.1244829-0.4100657 4.8191792 0 6.3759773 3.2478655 11.7503782 10.5056655 13.4813635V305.5421333z" stroke="none" style="0" class="svg-clip svg-visible"/>
</svg>